<svg version="1.0" xmlns="http://www.w3.org/2000/svg" width="682.667" height="682.667" viewBox="0 0 512 512"><path d="M116 226.1c0 173.6.3 225.8 1.2 225.3.6-.4 32-24.8 69.6-54.1 37.6-29.4 69-53.2 69.7-52.9.7.2 32.2 24.6 69.9 54 37.8 29.5 68.9 53.6 69.2 53.6.2 0 .4-101.7.4-226V0H116v226.1zm75.9-88.8c5.2 3.5 6.8 6.7 8.4 16.9l1.3 8.3 63.5.3c62.6.2 63.6.2 65.4 2.3 1.1 1.1 1.8 3.3 1.8 5.2-.1 1.8-3.1 17.8-6.7 35.6-7.3 36.2-8 37.9-16.3 42.8l-4.8 2.8h-92l-4.7-2.8c-5.2-3-8.5-7.1-9.9-12-.4-1.8-3.6-21.9-6.9-44.7-3.4-22.8-6.4-41.8-6.6-42.2-.3-.4-4.9-.8-10.3-.8-11.5 0-14.4-1.4-14.4-6.8 0-6.7 3.6-8.3 17.5-7.9 9.6.3 11.1.6 14.7 3zm38.3 124.8c11.4 5.7 13.6 21.2 4.3 30.4-5.3 5.4-11.3 7-18.7 5-16.7-4.3-19.2-27.5-3.8-35.5 6-3.2 11.7-3.1 18.2.1zm70.5.5c5.8 3.3 9.4 9.7 9.5 16.7.1 11.5-8.2 20-19.7 20-5.3 0-11.7-2.6-14.6-5.9-8.5-9.7-6.1-25.6 4.6-31.2 6.9-3.6 13.4-3.4 20.2.4z"/></svg>